<?xml version="1.0" encoding="UTF-8"?>
<svg xmlns="http://www.w3.org/2000/svg" viewBox="0 0 1014 1054" fill="#bcbdc0">
<g id="a">
<g id="b">
<path id="c" d="M469.86,765.61c-111.09,0-201.48-90.38-201.48-201.48s90.38-201.48,201.48-201.48V229.77c-184.66,0-334.36,149.7-334.36,334.36s149.7,334.36,334.36,334.36,334.36-149.7,334.36-334.36h-132.89c0,111.09-90.38,201.48-201.48,201.48Z"/><path id="d" d="M547.02,305.36v72.63c49.21,20.42,88.56,59.77,108.98,108.98h72.63c-25.98-86.96-94.65-155.63-181.61-181.61Z"/><path id="e" d="M547.02,221.23v48.49c105.92,27.78,189.48,111.34,217.26,217.26h48.49c-29.61-132.16-133.59-236.14-265.75-265.75Z"/><path id="f" d="M547.02,186.09c150.95,30.76,270.12,149.94,300.89,300.89h30.59c-31.49-167.77-163.71-299.99-331.48-331.48v30.59Z"/></g></g><g id="g"/><g id="h"/><g id="i"/></svg>