<?xml version="1.0" encoding="UTF-8"?><svg xmlns="http://www.w3.org/2000/svg" viewBox="0 0 1014 1054"><defs><style>.m{fill:#fdb913;}.n{fill:#ae1f25;}</style></defs><g id="a"><g id="b"><g id="c"><path id="d" class="n" d="M481.08,555.92c-77.55,0-140.65-63.09-140.65-140.65s63.09-140.65,140.65-140.65v-92.77c-128.91,0-233.42,104.51-233.42,233.42s104.51,233.42,233.42,233.42,233.42-104.51,233.42-233.42h-92.77c0,77.55-63.09,140.65-140.65,140.65Z"/><path id="e" class="m" d="M534.94,234.62v50.7c34.35,14.26,61.82,41.73,76.08,76.08h50.7c-18.14-60.71-66.08-108.65-126.78-126.78Z"/><path id="f" class="m" d="M534.94,175.88v33.85c73.94,19.39,132.27,77.72,151.67,151.67h33.85c-20.67-92.26-93.26-164.85-185.52-185.52Z"/><path id="g" class="m" d="M534.94,151.35c105.38,21.48,188.57,104.67,210.05,210.05h21.35c-21.98-117.12-114.28-209.42-231.4-231.4v21.35Z"/></g><g id="h"><path d="M315.1,808.45c-11.4,0-20.88-3.16-28.12-9.54-7.34-6.46-11.09-14.49-11.09-24.29s3.75-17.63,11.2-23.95c7.43-6.3,17.01-9.48,28.72-9.48s24.56,3.78,37.9,11.31v-24.55c-10.9-6.42-24.15-9.68-39.83-9.68-19.77,0-35.77,5.61-47.89,16.6-12.33,11.01-18.34,24.47-18.34,40.27s5.82,29.14,17.33,39.9c11.61,10.83,27.2,16.34,46.77,16.34,15.08,0,29.42-3.76,43.29-10.99v-24.07c-10.39,5.07-18.25,8.35-23.54,9.88-5.19,1.43-10.69,2.23-16.4,2.23Z"/><path d="M698.1,735.21c-9.79-9.28-22.73-14.35-38.73-15.29-1.93-.08-3.78-.2-5.81-.2h-48.6v110.15h45.55c3.04,0,6-.1,8.85-.32,16.2-1.23,29.04-5.9,38.52-14.27,11-9.74,16.6-23.22,16.6-40.35s-5.5-29.54-16.39-39.72Zm-21.09,64.88c-4.49,4.61-10.3,7.57-17.64,8.87-2.85,.54-5.81,.72-8.96,.72h-17.94v-69.81h17.53c3.37,0,6.42,.3,9.37,.85,7.24,1.21,13.04,4.06,17.53,8.55,6.21,6.2,9.37,14.75,9.37,25.58s-3.16,18.85-9.26,25.23Z"/><path d="M511.74,719.71l-44.33,110.15h29.04l8.26-21.83h49.22l8.96,21.83h29.55l-48.89-110.15h-31.8Zm.11,69.2l16.19-42.8,.82,1.93,16.92,40.87h-33.93Z"/><polygon points="404.56 783.2 454.79 783.2 454.79 763.02 404.56 763.02 404.56 739.88 457.13 739.88 457.13 719.71 377.05 719.71 377.05 829.86 458.26 829.86 458.26 809.68 404.56 809.68 404.56 783.2"/></g><g id="i"><path d="M685.49,859.51v53.91c1.13-.42,2.35-.5,3.68-.5,1.22,0,2.23,.08,3.15,.5v-27.11h11.31c.82,0,1.53,0,2.14,.12,.61,0,1.42,.08,2.43,.18,1.03,.12,2.15,.12,3.28,.2,0-.5-.11-.9-.21-1.33,0-.3,0-.58-.1-.78,.1-.32,.1-.62,.1-.93,.1-.32,.21-.72,.21-1.23-1.02,.12-2.04,.12-2.97,.2-.81,0-1.72,.1-2.54,.18h-13.65v-19.74h2.35c9.16,0,15.37,.4,18.53,1.11,0-1.11-.1-1.95-.2-2.23,.1-.5,.2-1.31,.2-2.56h-27.72Z"/><path d="M607.15,859.85c-.21,0-.61-.14-1.13-.14-.5-.08-.91-.2-1.02-.2v31.19c0,2.43-.31,4.89-.81,7.1-.51,2.25-1.42,4.41-2.66,6.34-1.32,1.95-3.04,3.56-5.28,4.71-2.25,1.19-4.99,1.81-8.26,1.81-4.68,0-8.35-1.03-10.89-2.96-2.65-1.81-4.29-4.06-5.21-6.7-.81-2.66-1.21-5.51-1.21-8.49v-33c-.83,0-2.04,.12-3.87,.34-.3,0-.82-.14-1.42-.14-.71-.08-1.23-.08-1.64-.2v33c0,4.29,.72,8.07,2.14,11.33,1.31,3.16,3.67,5.72,7.03,7.67,3.36,1.91,7.84,2.82,13.34,2.82,4.89,0,9.08-.91,12.54-2.66,3.45-1.73,6.1-4.29,7.94-7.73,1.83-3.36,2.74-7.55,2.74-12.34v-32.1c-.3,0-.7,.12-1.12,.2-.5,0-1.02,.14-1.21,.14Z"/><path d="M668.27,859.85c-.4,0-.8-.14-1.52-.14-.72-.08-1.22-.08-1.52-.2v48.11c0,4.04-.62,7.32-1.85,9.96-1.11,2.56-3.76,3.98-7.85,4.19l.62,2.23c2.95-.1,5.7-.8,8.16-2.13,2.32-1.43,4.28-3.36,5.7-5.82,1.43-2.54,2.15-5.39,2.15-8.67v-47.87c-.51,.12-1.13,.12-2.05,.2-.82,0-1.43,.14-1.84,.14Z"/><path d="M624.47,859.51v53.91c1.12-.42,2.34-.5,3.66-.5,1.23,0,2.24,.08,3.25,.5v-27.11h11.32c.7,0,1.42,0,2.03,.12,.71,0,1.52,.08,2.45,.18,1.01,.12,2.14,.12,3.35,.2-.09-.5-.2-.9-.2-1.33-.11-.3-.11-.58-.11-.78,0-.32,0-.62,.11-.93,0-.32,.11-.72,.2-1.23-1.11,.12-2.04,.12-2.96,.2-.9,0-1.82,.1-2.65,.18h-13.55v-19.74h2.24c9.18,0,15.4,.4,18.57,1.11,0-1.11-.11-1.95-.21-2.23,.1-.5,.21-1.31,.21-2.56h-27.72Z"/></g></g></g><g id="j"/><g id="k"/><g id="l"/></svg>